# Blender 4.1.1
# www.blender.org
mtllib beating.mtl
o beat-ground
v 0.000000 -0.200000 -1.653547
v 0.000000 -0.200000 -2.480320
v 0.000000 0.500000 -2.000000
v 0.000000 0.500000 -3.000000
v 0.322591 -0.200000 -1.621775
v 0.483887 -0.200000 -2.432662
v 0.390181 0.500000 -1.961571
v 0.585271 0.500000 -2.942356
v 0.632785 -0.200000 -1.527678
v 0.949178 -0.200000 -2.291517
v 0.765367 0.500000 -1.847759
v 1.148050 0.500000 -2.771638
v 0.918662 -0.200000 -1.374874
v 1.377992 -0.200000 -2.062311
v 1.111140 0.500000 -1.662939
v 1.666711 0.500000 -2.494409
v 1.169234 -0.200000 -1.169234
v 1.753851 -0.200000 -1.753851
v 1.414214 0.500000 -1.414214
v 2.121320 0.500000 -2.121320
v 1.374874 -0.200000 -0.918662
v 2.062311 -0.200000 -1.377992
v 1.662939 0.500000 -1.111140
v 2.494409 0.500000 -1.666711
v 1.527678 -0.200000 -0.632785
v 2.291517 -0.200000 -0.949178
v 1.847759 0.500000 -0.765367
v 2.771638 0.500000 -1.148050
v 1.621775 -0.200000 -0.322591
v 2.432662 -0.200000 -0.483887
v 1.961571 0.500000 -0.390181
v 2.942356 0.500000 -0.585271
v 1.653547 -0.200000 -0.000000
v 2.480320 -0.200000 -0.000000
v 2.000000 0.500000 0.000000
v 3.000000 0.500000 0.000000
v 1.621775 -0.200000 0.322591
v 2.432662 -0.200000 0.483887
v 1.961571 0.500000 0.390181
v 2.942356 0.500000 0.585271
v 1.527678 -0.200000 0.632785
v 2.291517 -0.200000 0.949178
v 1.847759 0.500000 0.765367
v 2.771638 0.500000 1.148050
v 1.374874 -0.200000 0.918661
v 2.062311 -0.200000 1.377992
v 1.662939 0.500000 1.111140
v 2.494409 0.500000 1.666711
v 1.169234 -0.200000 1.169234
v 1.753851 -0.200000 1.753851
v 1.414214 0.500000 1.414214
v 2.121320 0.500000 2.121320
v 0.918662 -0.200000 1.374874
v 1.377992 -0.200000 2.062311
v 1.111140 0.500000 1.662939
v 1.666711 0.500000 2.494409
v 0.632785 -0.200000 1.527678
v 0.949178 -0.200000 2.291517
v 0.765367 0.500000 1.847759
v 1.148050 0.500000 2.771638
v 0.322591 -0.200000 1.621775
v 0.483887 -0.200000 2.432662
v 0.390181 0.500000 1.961571
v 0.585271 0.500000 2.942356
v 0.000000 -0.200000 1.653547
v 0.000000 -0.200000 2.480320
v 0.000000 0.500000 2.000000
v 0.000000 0.500000 3.000000
v -0.322591 -0.200000 1.621775
v -0.483887 -0.200000 2.432662
v -0.390181 0.500000 1.961571
v -0.585271 0.500000 2.942356
v -0.632785 -0.200000 1.527678
v -0.949178 -0.200000 2.291517
v -0.765367 0.500000 1.847759
v -1.148050 0.500000 2.771638
v -0.918662 -0.200000 1.374874
v -1.377992 -0.200000 2.062311
v -1.111140 0.500000 1.662939
v -1.666711 0.500000 2.494409
v -1.169234 -0.200000 1.169234
v -1.753851 -0.200000 1.753851
v -1.414214 0.500000 1.414214
v -2.121320 0.500000 2.121320
v -1.374874 -0.200000 0.918661
v -2.062311 -0.200000 1.377992
v -1.662939 0.500000 1.111140
v -2.494409 0.500000 1.666711
v -1.527678 -0.200000 0.632785
v -2.291517 -0.200000 0.949178
v -1.847759 0.500000 0.765367
v -2.771638 0.500000 1.148050
v -1.621775 -0.200000 0.322591
v -2.432662 -0.200000 0.483887
v -1.961571 0.500000 0.390181
v -2.942356 0.500000 0.585271
v -1.653547 -0.200000 -0.000000
v -2.480320 -0.200000 -0.000000
v -2.000000 0.500000 0.000000
v -3.000000 0.500000 0.000000
v -1.621775 -0.200000 -0.322591
v -2.432662 -0.200000 -0.483887
v -1.961571 0.500000 -0.390181
v -2.942356 0.500000 -0.585271
v -1.527678 -0.200000 -0.632785
v -2.291517 -0.200000 -0.949178
v -1.847759 0.500000 -0.765367
v -2.771638 0.500000 -1.148050
v -1.374874 -0.200000 -0.918662
v -2.062311 -0.200000 -1.377992
v -1.662939 0.500000 -1.111140
v -2.494409 0.500000 -1.666711
v -1.169234 -0.200000 -1.169234
v -1.753851 -0.200000 -1.753851
v -1.414214 0.500000 -1.414214
v -2.121320 0.500000 -2.121320
v -0.918662 -0.200000 -1.374874
v -1.377992 -0.200000 -2.062311
v -1.111140 0.500000 -1.662939
v -1.666711 0.500000 -2.494409
v -0.632785 -0.200000 -1.527678
v -0.949178 -0.200000 -2.291517
v -0.765367 0.500000 -1.847759
v -1.148050 0.500000 -2.771638
v -0.322591 -0.200000 -1.621775
v -0.483887 -0.200000 -2.432662
v -0.390181 0.500000 -1.961571
v -0.585271 0.500000 -2.942356
vn -0.0000 0.4436 0.8962
vn -0.0000 0.5961 0.8029
vn -0.1748 0.4436 0.8790
vn -0.1566 0.5961 0.7875
vn -0.3430 0.4436 0.8280
vn -0.3073 0.5961 0.7418
vn -0.4979 0.4436 0.7452
vn -0.4461 0.5961 0.6676
vn -0.6337 0.4436 0.6337
vn -0.5678 0.5961 0.5678
vn -0.5678 0.5961 0.5677
vn -0.7452 0.4436 0.4979
vn -0.6676 0.5961 0.4461
vn -0.8280 0.4436 0.3430
vn -0.7418 0.5961 0.3073
vn -0.8790 0.4436 0.1748
vn -0.7875 0.5961 0.1566
vn -0.8962 0.4436 -0.0000
vn -0.8029 0.5961 -0.0000
vn -0.8790 0.4436 -0.1748
vn -0.7875 0.5961 -0.1566
vn -0.8280 0.4436 -0.3430
vn -0.7418 0.5961 -0.3073
vn -0.7452 0.4436 -0.4979
vn -0.6676 0.5961 -0.4461
vn -0.6337 0.4436 -0.6337
vn -0.5678 0.5961 -0.5678
vn -0.5678 0.5961 -0.5677
vn -0.4979 0.4436 -0.7452
vn -0.4461 0.5961 -0.6676
vn -0.3430 0.4436 -0.8280
vn -0.3073 0.5961 -0.7418
vn -0.1748 0.4436 -0.8790
vn -0.1566 0.5961 -0.7875
vn -0.0000 0.4436 -0.8962
vn -0.0000 0.5961 -0.8029
vn 0.1748 0.4436 -0.8790
vn 0.1566 0.5961 -0.7875
vn 0.3430 0.4436 -0.8280
vn 0.3073 0.5961 -0.7418
vn 0.4979 0.4436 -0.7452
vn 0.4461 0.5961 -0.6676
vn 0.6337 0.4436 -0.6337
vn 0.5678 0.5961 -0.5678
vn 0.5678 0.5961 -0.5677
vn 0.7452 0.4436 -0.4979
vn 0.6676 0.5961 -0.4461
vn 0.8280 0.4436 -0.3430
vn 0.7418 0.5961 -0.3073
vn 0.8790 0.4436 -0.1748
vn 0.7875 0.5961 -0.1566
vn 0.8962 0.4436 -0.0000
vn 0.8029 0.5961 -0.0000
vn 0.8790 0.4436 0.1748
vn 0.7875 0.5961 0.1566
vn 0.8280 0.4436 0.3430
vn 0.7418 0.5961 0.3073
vn 0.7452 0.4436 0.4979
vn 0.6676 0.5961 0.4461
vn 0.6337 0.4436 0.6337
vn 0.5678 0.5961 0.5678
vn 0.5678 0.5961 0.5677
vn 0.4979 0.4436 0.7452
vn 0.4461 0.5961 0.6676
vn 0.3430 0.4436 0.8280
vn 0.3073 0.5961 0.7418
vn 0.1748 0.4436 0.8790
vn 0.1566 0.5961 0.7875
vt 1.000000 0.750000
vt 0.968750 0.875000
vt 1.000000 0.875000
vt 0.937500 0.750000
vt 0.968750 0.750000
vt 0.906250 0.750000
vt 0.937500 0.875000
vt 0.875000 0.875000
vt 0.906250 0.875000
vt 0.843750 0.750000
vt 0.875000 0.750000
vt 0.812500 0.875000
vt 0.843750 0.875000
vt 0.812500 0.750000
vt 0.781250 0.875000
vt 0.750000 0.750000
vt 0.781250 0.750000
vt 0.718750 0.875000
vt 0.750000 0.875000
vt 0.687500 0.750000
vt 0.718750 0.750000
vt 0.656250 0.750000
vt 0.687500 0.875000
vt 0.625000 0.750000
vt 0.656250 0.875000
vt 0.593750 0.750000
vt 0.625000 0.875000
vt 0.562500 0.875000
vt 0.593750 0.875000
vt 0.562500 0.750000
vt 0.531250 0.875000
vt 0.500000 0.750000
vt 0.531250 0.750000
vt 0.468750 0.875000
vt 0.500000 0.875000
vt 0.437500 0.750000
vt 0.468750 0.750000
vt 0.406250 0.750000
vt 0.437500 0.875000
vt 0.375000 0.875000
vt 0.406250 0.875000
vt 0.343750 0.750000
vt 0.375000 0.750000
vt 0.312500 0.875000
vt 0.343750 0.875000
vt 0.312500 0.750000
vt 0.281250 0.875000
vt 0.250000 0.750000
vt 0.281250 0.750000
vt 0.218750 0.875000
vt 0.250000 0.875000
vt 0.187500 0.750000
vt 0.218750 0.750000
vt 0.156250 0.750000
vt 0.187500 0.875000
vt 0.125000 0.875000
vt 0.156250 0.875000
vt 0.093750 0.750000
vt 0.125000 0.750000
vt 0.062500 0.875000
vt 0.093750 0.875000
vt 0.062500 0.750000
vt 0.031250 0.875000
vt 0.000000 0.750000
vt 0.031250 0.750000
vt 0.968750 1.000000
vt 1.000000 1.000000
vt 0.937500 1.000000
vt 0.875000 1.000000
vt 0.906250 1.000000
vt 0.812500 1.000000
vt 0.843750 1.000000
vt 0.781250 1.000000
vt 0.718750 1.000000
vt 0.750000 1.000000
vt 0.687500 1.000000
vt 0.625000 1.000000
vt 0.656250 1.000000
vt 0.562500 1.000000
vt 0.593750 1.000000
vt 0.531250 1.000000
vt 0.468750 1.000000
vt 0.500000 1.000000
vt 0.437500 1.000000
vt 0.375000 1.000000
vt 0.406250 1.000000
vt 0.312500 1.000000
vt 0.343750 1.000000
vt 0.281250 1.000000
vt 0.218750 1.000000
vt 0.250000 1.000000
vt 0.187500 1.000000
vt 0.125000 1.000000
vt 0.156250 1.000000
vt 0.062500 1.000000
vt 0.093750 1.000000
vt 0.000000 0.875000
vt 0.031250 1.000000
vt 0.000000 1.000000
s 1
usemtl Material
f 1/1/1 7/2/3 3/3/1
f 9/4/5 7/2/3 5/5/3
f 13/6/7 11/7/5 9/4/5
f 13/6/7 19/8/9 15/9/7
f 21/10/12 19/8/9 17/11/9
f 21/10/12 27/12/14 23/13/12
f 25/14/14 31/15/16 27/12/14
f 33/16/18 31/15/16 29/17/16
f 33/16/18 39/18/20 35/19/18
f 41/20/22 39/18/20 37/21/20
f 45/22/24 43/23/22 41/20/22
f 49/24/26 47/25/24 45/22/24
f 53/26/29 51/27/26 49/24/26
f 53/26/29 59/28/31 55/29/29
f 57/30/31 63/31/33 59/28/31
f 65/32/35 63/31/33 61/33/33
f 65/32/35 71/34/37 67/35/35
f 73/36/39 71/34/37 69/37/37
f 77/38/41 75/39/39 73/36/39
f 77/38/41 83/40/43 79/41/41
f 85/42/46 83/40/43 81/43/43
f 85/42/46 91/44/48 87/45/46
f 89/46/48 95/47/50 91/44/48
f 97/48/52 95/47/50 93/49/50
f 97/48/52 103/50/54 99/51/52
f 105/52/56 103/50/54 101/53/54
f 109/54/58 107/55/56 105/52/56
f 109/54/58 115/56/60 111/57/58
f 117/58/63 115/56/60 113/59/60
f 117/58/63 123/60/65 119/61/63
f 121/62/65 127/63/67 123/60/65
f 1/64/1 127/63/67 125/65/67
f 2/3/2 8/66/4 4/67/2
f 10/7/6 8/66/4 6/2/4
f 14/9/8 12/68/6 10/7/6
f 14/9/8 20/69/11 16/70/8
f 22/13/13 20/69/11 18/8/10
f 22/13/13 28/71/15 24/72/13
f 30/15/17 28/71/15 26/12/15
f 34/19/19 32/73/17 30/15/17
f 34/19/19 40/74/21 36/75/19
f 42/23/23 40/74/21 38/18/21
f 46/25/25 44/76/23 42/23/23
f 46/25/25 52/77/28 48/78/25
f 54/29/30 52/77/28 50/27/27
f 54/29/30 60/79/32 56/80/30
f 62/31/34 60/79/32 58/28/32
f 66/35/36 64/81/34 62/31/34
f 66/35/36 72/82/38 68/83/36
f 74/39/40 72/82/38 70/34/38
f 78/41/42 76/84/40 74/39/40
f 78/41/42 84/85/45 80/86/42
f 86/45/47 84/85/45 82/40/44
f 86/45/47 92/87/49 88/88/47
f 94/47/51 92/87/49 90/44/49
f 98/51/53 96/89/51 94/47/51
f 98/51/53 104/90/55 100/91/53
f 106/55/57 104/90/55 102/50/55
f 110/57/59 108/92/57 106/55/57
f 110/57/59 116/93/62 112/94/59
f 118/61/64 116/93/62 114/56/61
f 118/61/64 124/95/66 120/96/64
f 126/63/68 124/95/66 122/60/66
f 2/97/2 128/98/68 126/63/68
f 1/1/1 5/5/3 7/2/3
f 9/4/5 11/7/5 7/2/3
f 13/6/7 15/9/7 11/7/5
f 13/6/7 17/11/9 19/8/9
f 21/10/12 23/13/12 19/8/9
f 21/10/12 25/14/14 27/12/14
f 25/14/14 29/17/16 31/15/16
f 33/16/18 35/19/18 31/15/16
f 33/16/18 37/21/20 39/18/20
f 41/20/22 43/23/22 39/18/20
f 45/22/24 47/25/24 43/23/22
f 49/24/26 51/27/26 47/25/24
f 53/26/29 55/29/29 51/27/26
f 53/26/29 57/30/31 59/28/31
f 57/30/31 61/33/33 63/31/33
f 65/32/35 67/35/35 63/31/33
f 65/32/35 69/37/37 71/34/37
f 73/36/39 75/39/39 71/34/37
f 77/38/41 79/41/41 75/39/39
f 77/38/41 81/43/43 83/40/43
f 85/42/46 87/45/46 83/40/43
f 85/42/46 89/46/48 91/44/48
f 89/46/48 93/49/50 95/47/50
f 97/48/52 99/51/52 95/47/50
f 97/48/52 101/53/54 103/50/54
f 105/52/56 107/55/56 103/50/54
f 109/54/58 111/57/58 107/55/56
f 109/54/58 113/59/60 115/56/60
f 117/58/63 119/61/63 115/56/60
f 117/58/63 121/62/65 123/60/65
f 121/62/65 125/65/67 127/63/67
f 1/64/1 3/97/1 127/63/67
f 2/3/2 6/2/4 8/66/4
f 10/7/6 12/68/6 8/66/4
f 14/9/8 16/70/8 12/68/6
f 14/9/8 18/8/10 20/69/11
f 22/13/13 24/72/13 20/69/11
f 22/13/13 26/12/15 28/71/15
f 30/15/17 32/73/17 28/71/15
f 34/19/19 36/75/19 32/73/17
f 34/19/19 38/18/21 40/74/21
f 42/23/23 44/76/23 40/74/21
f 46/25/25 48/78/25 44/76/23
f 46/25/25 50/27/27 52/77/28
f 54/29/30 56/80/30 52/77/28
f 54/29/30 58/28/32 60/79/32
f 62/31/34 64/81/34 60/79/32
f 66/35/36 68/83/36 64/81/34
f 66/35/36 70/34/38 72/82/38
f 74/39/40 76/84/40 72/82/38
f 78/41/42 80/86/42 76/84/40
f 78/41/42 82/40/44 84/85/45
f 86/45/47 88/88/47 84/85/45
f 86/45/47 90/44/49 92/87/49
f 94/47/51 96/89/51 92/87/49
f 98/51/53 100/91/53 96/89/51
f 98/51/53 102/50/55 104/90/55
f 106/55/57 108/92/57 104/90/55
f 110/57/59 112/94/59 108/92/57
f 110/57/59 114/56/61 116/93/62
f 118/61/64 120/96/64 116/93/62
f 118/61/64 122/60/66 124/95/66
f 126/63/68 128/98/68 124/95/66
f 2/97/2 4/99/2 128/98/68
